<svg width="456" height="89" viewBox="0 0 456 89" fill="none" xmlns="http://www.w3.org/2000/svg">
<path d="M112.88 17.24L94.4 73.12H93.12L80.04 41.12L67.2 73.04H65.84L47.2 17.24H58.24L67.96 49.6L79.6 17.24H80.96L92.76 49.48L101.92 17.24H112.88ZM149.263 63.96V73H118.543V17.24H147.663V25.96H128.543V39H143.743V47.48H128.543V63.96H149.263ZM186.411 43.48C189.531 44.2267 191.865 45.76 193.411 48.08C194.958 50.3733 195.731 53.32 195.731 56.92C195.731 62.04 193.985 66 190.491 68.8C187.025 71.6 181.651 73 174.371 73H159.251V17.24H174.131C186.665 17.24 192.931 22.2 192.931 32.12C192.931 34.44 192.385 36.6533 191.291 38.76C190.198 40.8667 188.571 42.44 186.411 43.48ZM183.011 32.44C183.011 29.7733 182.185 27.8933 180.531 26.8C178.878 25.7067 176.745 25.16 174.131 25.16H169.331V40.6H175.811C177.518 40.6 178.905 40.1867 179.971 39.36C181.038 38.5333 181.811 37.5067 182.291 36.28C182.771 35.0267 183.011 33.7467 183.011 32.44ZM175.491 64.92C178.371 64.92 180.705 64.32 182.491 63.12C184.278 61.8933 185.171 59.64 185.171 56.36C185.171 53.08 184.238 50.88 182.371 49.76C180.531 48.6133 178.078 48.04 175.011 48.04H169.331V64.92H175.491Z" fill="black"/>
<rect x="214" width="194" height="89" fill="black"/>
<path d="M245.038 73.96C241.011 73.96 237.278 72.88 233.838 70.72C230.398 68.5333 227.624 65.2133 225.518 60.76C223.438 56.3067 222.398 50.84 222.398 44.36C222.398 38.4667 223.438 33.4133 225.518 29.2C227.598 24.96 230.411 21.7467 233.958 19.56C237.531 17.3733 241.518 16.28 245.918 16.28C248.611 16.28 250.891 16.5467 252.758 17.08C254.624 17.5867 256.091 18.1867 257.158 18.88C258.224 19.5467 259.251 20.3333 260.238 21.24L255.758 29.64C254.824 28.6267 253.998 27.8533 253.278 27.32C252.558 26.76 251.638 26.32 250.518 26C249.424 25.6533 248.024 25.48 246.318 25.48C243.651 25.48 241.358 26.2667 239.438 27.84C237.518 29.3867 236.051 31.5467 235.038 34.32C234.024 37.0667 233.518 40.2267 233.518 43.8C233.518 48.28 234.038 52.1067 235.078 55.28C236.144 58.4533 237.571 60.84 239.358 62.44C241.171 64.04 243.198 64.84 245.438 64.84C247.811 64.84 249.904 64.5067 251.718 63.84C253.558 63.1733 254.958 62.3333 255.918 61.32L260.318 69.24C258.691 70.5733 256.718 71.6933 254.398 72.6C252.104 73.5067 248.984 73.96 245.038 73.96ZM287.244 73.96C282.284 73.96 278.057 72.7867 274.564 70.44C271.07 68.0667 268.43 64.72 266.644 60.4C264.857 56.0533 263.964 50.9467 263.964 45.08C263.964 39.2667 264.844 34.2 266.604 29.88C268.39 25.5333 271.004 22.1867 274.444 19.84C277.91 17.4667 282.097 16.28 287.004 16.28C292.097 16.28 296.39 17.48 299.884 19.88C303.377 22.2533 305.99 25.6 307.724 29.92C309.484 34.24 310.364 39.2933 310.364 45.08C310.364 50.9467 309.457 56.0533 307.644 60.4C305.857 64.72 303.23 68.0667 299.764 70.44C296.297 72.7867 292.124 73.96 287.244 73.96ZM287.244 65.4C289.617 65.4 291.737 64.64 293.604 63.12C295.497 61.6 296.99 59.2933 298.084 56.2C299.177 53.1067 299.724 49.32 299.724 44.84C299.724 38.2533 298.604 33.24 296.364 29.8C294.15 26.3333 291.03 24.6 287.004 24.6C283.084 24.6 280.044 26.3333 277.884 29.8C275.75 33.24 274.684 38.28 274.684 44.92C274.684 49.4533 275.19 53.2533 276.204 56.32C277.244 59.36 278.697 61.64 280.564 63.16C282.457 64.6533 284.684 65.4 287.244 65.4ZM334.38 17.24C342.54 17.24 348.793 19.5333 353.14 24.12C357.487 28.68 359.66 35.4533 359.66 44.44C359.66 50.28 358.673 55.3467 356.7 59.64C354.753 63.9067 351.873 67.2 348.06 69.52C344.273 71.84 339.687 73 334.3 73H319.98V17.24H334.38ZM334.06 64.2C337.74 64.2 340.713 63.2933 342.98 61.48C345.247 59.6667 346.86 57.3067 347.82 54.4C348.78 51.4667 349.26 48.2267 349.26 44.68C349.26 39.0267 348.06 34.3733 345.66 30.72C343.287 27.0667 339.42 25.24 334.06 25.24H330.3V64.2H334.06ZM399.294 63.96V73H368.574V17.24H397.694V25.96H378.574V39H393.774V47.48H378.574V63.96H399.294Z" fill="white"/>
<path d="M449.371 45.72V53L419.611 71.24V62.28L440.771 49.36L419.611 36.44V27.56L449.371 45.72Z" fill="black"/>
<path d="M36.3709 36.44L15.2109 49.36L36.3709 62.28V71.24L6.61094 53V45.72L36.3709 27.56V36.44Z" fill="black"/>
</svg>
