<svg width="375" height="109" viewBox="0 0 375 109" fill="none" xmlns="http://www.w3.org/2000/svg">
<rect y="2" width="170" height="107" fill="black"/>
<path d="M69.4578 68.08L57.6978 80H49.9378L40.8178 70.72L31.7778 80H23.9378L12.1778 68.08V24.72H20.0978V65.84L27.2978 73.28H29.4578L36.8178 65.84V24.72H44.7378V65.84L52.0978 73.28H54.3378L61.5378 66.08V24.72H69.4578V68.08ZM110.918 80H83.3184V38.48L90.2784 31.68H82.3584V24.72H110.918V31.68H91.2384V51.36L97.0784 45.44H110.918V52.32H91.2384V73.04H110.918V80ZM157.332 73.04L150.372 80H122.772V38.48L129.732 31.68H121.812V24.72H144.452L151.412 31.68V41.52L146.532 46.4H151.412L157.332 52.32V73.04ZM143.492 46.4V31.68H130.692V52.32L136.532 46.4H143.492ZM149.412 73.04V52.32H130.692V73.04H149.412Z" fill="white"/>
<line x1="200" y1="7.5" x2="370.012" y2="7.5" stroke="black" stroke-width="15"/>
<path d="M235.94 74.04L228.98 81H209.22L202.34 74.04V32.68L209.22 25.72H228.98L235.94 32.68V38.44L228.02 46.44V32.68H210.26V74.04H228.02V68.2L235.94 60.28V74.04ZM280.553 74.04L273.593 81H252.873L245.993 74.04V32.68L252.873 25.72H273.593L280.553 32.68V74.04ZM272.633 74.04V32.68H253.913V74.04H272.633ZM328.994 74.04L322.034 81H294.434V39.48L301.394 32.68H293.474V25.72H322.034L328.994 32.68V74.04ZM321.074 74.04V32.68H302.354V80.04L308.194 74.04H321.074ZM370.687 81H343.087V39.48L350.047 32.68H342.127V25.72H370.687V32.68H351.007V52.36L356.847 46.44H370.687V53.32H351.007V74.04H370.687V81Z" fill="black"/>
<line x1="200" y1="101.5" x2="370.012" y2="101.5" stroke="black" stroke-width="15"/>
</svg>
