<svg width="369" height="89" viewBox="0 0 369 89" fill="none" xmlns="http://www.w3.org/2000/svg">
<line y1="5" x2="160.012" y2="5" stroke="black" stroke-width="10"/>
<line y1="84" x2="160.012" y2="84" stroke="black" stroke-width="10"/>
<rect x="175" width="194" height="89" fill="black"/>
<path d="M206.038 73.96C202.011 73.96 198.278 72.88 194.838 70.72C191.398 68.5333 188.624 65.2133 186.518 60.76C184.438 56.3067 183.398 50.84 183.398 44.36C183.398 38.4667 184.438 33.4133 186.518 29.2C188.598 24.96 191.411 21.7467 194.958 19.56C198.531 17.3733 202.518 16.28 206.918 16.28C209.611 16.28 211.891 16.5467 213.758 17.08C215.624 17.5867 217.091 18.1867 218.158 18.88C219.224 19.5467 220.251 20.3333 221.238 21.24L216.758 29.64C215.824 28.6267 214.998 27.8533 214.278 27.32C213.558 26.76 212.638 26.32 211.518 26C210.424 25.6533 209.024 25.48 207.318 25.48C204.651 25.48 202.358 26.2667 200.438 27.84C198.518 29.3867 197.051 31.5467 196.038 34.32C195.024 37.0667 194.518 40.2267 194.518 43.8C194.518 48.28 195.038 52.1067 196.078 55.28C197.144 58.4533 198.571 60.84 200.358 62.44C202.171 64.04 204.198 64.84 206.438 64.84C208.811 64.84 210.904 64.5067 212.718 63.84C214.558 63.1733 215.958 62.3333 216.918 61.32L221.318 69.24C219.691 70.5733 217.718 71.6933 215.398 72.6C213.104 73.5067 209.984 73.96 206.038 73.96ZM248.244 73.96C243.284 73.96 239.057 72.7867 235.564 70.44C232.07 68.0667 229.43 64.72 227.644 60.4C225.857 56.0533 224.964 50.9467 224.964 45.08C224.964 39.2667 225.844 34.2 227.604 29.88C229.39 25.5333 232.004 22.1867 235.444 19.84C238.91 17.4667 243.097 16.28 248.004 16.28C253.097 16.28 257.39 17.48 260.884 19.88C264.377 22.2533 266.99 25.6 268.724 29.92C270.484 34.24 271.364 39.2933 271.364 45.08C271.364 50.9467 270.457 56.0533 268.644 60.4C266.857 64.72 264.23 68.0667 260.764 70.44C257.297 72.7867 253.124 73.96 248.244 73.96ZM248.244 65.4C250.617 65.4 252.737 64.64 254.604 63.12C256.497 61.6 257.99 59.2933 259.084 56.2C260.177 53.1067 260.724 49.32 260.724 44.84C260.724 38.2533 259.604 33.24 257.364 29.8C255.15 26.3333 252.03 24.6 248.004 24.6C244.084 24.6 241.044 26.3333 238.884 29.8C236.75 33.24 235.684 38.28 235.684 44.92C235.684 49.4533 236.19 53.2533 237.204 56.32C238.244 59.36 239.697 61.64 241.564 63.16C243.457 64.6533 245.684 65.4 248.244 65.4ZM295.38 17.24C303.54 17.24 309.793 19.5333 314.14 24.12C318.487 28.68 320.66 35.4533 320.66 44.44C320.66 50.28 319.673 55.3467 317.7 59.64C315.753 63.9067 312.873 67.2 309.06 69.52C305.273 71.84 300.687 73 295.3 73H280.98V17.24H295.38ZM295.06 64.2C298.74 64.2 301.713 63.2933 303.98 61.48C306.247 59.6667 307.86 57.3067 308.82 54.4C309.78 51.4667 310.26 48.2267 310.26 44.68C310.26 39.0267 309.06 34.3733 306.66 30.72C304.287 27.0667 300.42 25.24 295.06 25.24H291.3V64.2H295.06ZM360.294 63.96V73H329.574V17.24H358.694V25.96H339.574V39H354.774V47.48H339.574V63.96H360.294Z" fill="white"/>
<path d="M69.88 17.24L51.4 73.12H50.12L37.04 41.12L24.2 73.04H22.84L4.2 17.24H15.24L24.96 49.6L36.6 17.24H37.96L49.76 49.48L58.92 17.24H69.88ZM106.263 63.96V73H75.5425V17.24H104.663V25.96H85.5425V39H100.743V47.48H85.5425V63.96H106.263ZM143.411 43.48C146.531 44.2267 148.865 45.76 150.411 48.08C151.958 50.3733 152.731 53.32 152.731 56.92C152.731 62.04 150.985 66 147.491 68.8C144.025 71.6 138.651 73 131.371 73H116.251V17.24H131.131C143.665 17.24 149.931 22.2 149.931 32.12C149.931 34.44 149.385 36.6533 148.291 38.76C147.198 40.8667 145.571 42.44 143.411 43.48ZM140.011 32.44C140.011 29.7733 139.185 27.8933 137.531 26.8C135.878 25.7067 133.745 25.16 131.131 25.16H126.331V40.6H132.811C134.518 40.6 135.905 40.1867 136.971 39.36C138.038 38.5333 138.811 37.5067 139.291 36.28C139.771 35.0267 140.011 33.7467 140.011 32.44ZM132.491 64.92C135.371 64.92 137.705 64.32 139.491 63.12C141.278 61.8933 142.171 59.64 142.171 56.36C142.171 53.08 141.238 50.88 139.371 49.76C137.531 48.6133 135.078 48.04 132.011 48.04H126.331V64.92H132.491Z" fill="black"/>
</svg>
