<svg width="375" height="89" viewBox="0 0 375 89" fill="none" xmlns="http://www.w3.org/2000/svg">
<rect width="170" height="89" fill="black"/>
<path d="M74.88 17.24L56.4 73.12H55.12L42.04 41.12L29.2 73.04H27.84L9.2 17.24H20.24L29.96 49.6L41.6 17.24H42.96L54.76 49.48L63.92 17.24H74.88ZM111.263 63.96V73H80.5425V17.24H109.663V25.96H90.5425V39H105.743V47.48H90.5425V63.96H111.263ZM148.411 43.48C151.531 44.2267 153.865 45.76 155.411 48.08C156.958 50.3733 157.731 53.32 157.731 56.92C157.731 62.04 155.985 66 152.491 68.8C149.025 71.6 143.651 73 136.371 73H121.251V17.24H136.131C148.665 17.24 154.931 22.2 154.931 32.12C154.931 34.44 154.385 36.6533 153.291 38.76C152.198 40.8667 150.571 42.44 148.411 43.48ZM145.011 32.44C145.011 29.7733 144.185 27.8933 142.531 26.8C140.878 25.7067 138.745 25.16 136.131 25.16H131.331V40.6H137.811C139.518 40.6 140.905 40.1867 141.971 39.36C143.038 38.5333 143.811 37.5067 144.291 36.28C144.771 35.0267 145.011 33.7467 145.011 32.44ZM137.491 64.92C140.371 64.92 142.705 64.32 144.491 63.12C146.278 61.8933 147.171 59.64 147.171 56.36C147.171 53.08 146.238 50.88 144.371 49.76C142.531 48.6133 140.078 48.04 137.011 48.04H131.331V64.92H137.491Z" fill="white"/>
<path d="M217.038 73.96C213.011 73.96 209.278 72.88 205.838 70.72C202.398 68.5333 199.624 65.2133 197.518 60.76C195.438 56.3067 194.398 50.84 194.398 44.36C194.398 38.4667 195.438 33.4133 197.518 29.2C199.598 24.96 202.411 21.7467 205.958 19.56C209.531 17.3733 213.518 16.28 217.918 16.28C220.611 16.28 222.891 16.5467 224.758 17.08C226.624 17.5867 228.091 18.1867 229.158 18.88C230.224 19.5467 231.251 20.3333 232.238 21.24L227.758 29.64C226.824 28.6267 225.998 27.8533 225.278 27.32C224.558 26.76 223.638 26.32 222.518 26C221.424 25.6533 220.024 25.48 218.318 25.48C215.651 25.48 213.358 26.2667 211.438 27.84C209.518 29.3867 208.051 31.5467 207.038 34.32C206.024 37.0667 205.518 40.2267 205.518 43.8C205.518 48.28 206.038 52.1067 207.078 55.28C208.144 58.4533 209.571 60.84 211.358 62.44C213.171 64.04 215.198 64.84 217.438 64.84C219.811 64.84 221.904 64.5067 223.718 63.84C225.558 63.1733 226.958 62.3333 227.918 61.32L232.318 69.24C230.691 70.5733 228.718 71.6933 226.398 72.6C224.104 73.5067 220.984 73.96 217.038 73.96ZM259.244 73.96C254.284 73.96 250.057 72.7867 246.564 70.44C243.07 68.0667 240.43 64.72 238.644 60.4C236.857 56.0533 235.964 50.9467 235.964 45.08C235.964 39.2667 236.844 34.2 238.604 29.88C240.39 25.5333 243.004 22.1867 246.444 19.84C249.91 17.4667 254.097 16.28 259.004 16.28C264.097 16.28 268.39 17.48 271.884 19.88C275.377 22.2533 277.99 25.6 279.724 29.92C281.484 34.24 282.364 39.2933 282.364 45.08C282.364 50.9467 281.457 56.0533 279.644 60.4C277.857 64.72 275.23 68.0667 271.764 70.44C268.297 72.7867 264.124 73.96 259.244 73.96ZM259.244 65.4C261.617 65.4 263.737 64.64 265.604 63.12C267.497 61.6 268.99 59.2933 270.084 56.2C271.177 53.1067 271.724 49.32 271.724 44.84C271.724 38.2533 270.604 33.24 268.364 29.8C266.15 26.3333 263.03 24.6 259.004 24.6C255.084 24.6 252.044 26.3333 249.884 29.8C247.75 33.24 246.684 38.28 246.684 44.92C246.684 49.4533 247.19 53.2533 248.204 56.32C249.244 59.36 250.697 61.64 252.564 63.16C254.457 64.6533 256.684 65.4 259.244 65.4ZM306.38 17.24C314.54 17.24 320.793 19.5333 325.14 24.12C329.487 28.68 331.66 35.4533 331.66 44.44C331.66 50.28 330.673 55.3467 328.7 59.64C326.753 63.9067 323.873 67.2 320.06 69.52C316.273 71.84 311.687 73 306.3 73H291.98V17.24H306.38ZM306.06 64.2C309.74 64.2 312.713 63.2933 314.98 61.48C317.247 59.6667 318.86 57.3067 319.82 54.4C320.78 51.4667 321.26 48.2267 321.26 44.68C321.26 39.0267 320.06 34.3733 317.66 30.72C315.287 27.0667 311.42 25.24 306.06 25.24H302.3V64.2H306.06ZM371.294 63.96V73H340.574V17.24H369.694V25.96H350.574V39H365.774V47.48H350.574V63.96H371.294Z" fill="black"/>
<line x1="185" y1="6" x2="370" y2="6" stroke="black" stroke-width="10"/>
<line x1="185" y1="84" x2="370" y2="84" stroke="black" stroke-width="10"/>
</svg>
