<svg width="15" height="15" viewBox="0 0 15 15" fill="none" xmlns="http://www.w3.org/2000/svg">
<g clip-path="url(#clip0)">
<path d="M13.1688 1.79236H1.83426C0.822471 1.79236 0 2.61483 0 3.62662V11.3734C0 12.3852 0.822471 13.2076 1.83426 13.2076H13.1657C14.1775 13.2076 15 12.3852 15 11.3734V3.62973C15.0031 2.61793 14.1806 1.79236 13.1688 1.79236ZM14.1651 11.3734C14.1651 11.9227 13.7182 12.3696 13.1688 12.3696H1.83426C1.28492 12.3696 0.837989 11.9227 0.837989 11.3734V3.62973C0.837989 3.08038 1.28492 2.63345 1.83426 2.63345H13.1657C13.7151 2.63345 14.162 3.08038 14.162 3.62973V11.3734H14.1651Z" fill="#999999"/>
<path d="M9.46007 7.40377L13.1286 4.11389C13.2993 3.9587 13.3148 3.69489 13.1596 3.52109C13.0044 3.35039 12.7406 3.33487 12.5668 3.49005L7.50786 8.03071L6.5209 7.14927C6.51779 7.14616 6.51469 7.14306 6.51469 7.13996C6.49297 7.11823 6.47124 7.09961 6.44641 7.08099L2.43027 3.48695C2.25647 3.33176 1.99265 3.34728 1.83747 3.52109C1.68229 3.69489 1.69781 3.9587 1.87161 4.11389L5.58359 7.4317L1.88713 10.8923C1.71953 11.0506 1.71022 11.3144 1.86851 11.4851C1.95231 11.572 2.06404 11.6185 2.17577 11.6185C2.27819 11.6185 2.38061 11.5813 2.46131 11.5068L6.21364 7.99657L7.23164 8.90594C7.31233 8.97733 7.41165 9.01147 7.51097 9.01147C7.61028 9.01147 7.7127 8.97422 7.7903 8.90284L8.83623 7.96553L12.5668 11.5099C12.6475 11.5875 12.7531 11.6247 12.8555 11.6247C12.9672 11.6247 13.0758 11.5813 13.1596 11.4944C13.3179 11.3268 13.3117 11.0599 13.1441 10.9016L9.46007 7.40377Z" fill="#999999"/>
</g>
<defs>
<clipPath id="clip0">
<rect width="15" height="15" fill="white"/>
</clipPath>
</defs>
</svg>
