<svg width="15" height="15" viewBox="0 0 15 15" fill="none" xmlns="http://www.w3.org/2000/svg">
<g clip-path="url(#clip0)">
<path d="M14.6064 11.5718L11.5703 9.54714C11.1851 9.29226 10.6686 9.37613 10.3838 9.73985L9.49938 10.8769C9.38573 11.0268 9.17913 11.0703 9.01471 10.9789L8.84648 10.8862C8.28881 10.5822 7.59493 10.2038 6.19688 8.80525C4.79884 7.4067 4.41965 6.71229 4.11568 6.15565L4.02344 5.98742C3.93084 5.82303 3.97349 5.61555 4.12341 5.50099L5.25973 4.61688C5.62331 4.33201 5.70729 3.8157 5.45271 3.4303L3.42801 0.394248C3.1671 0.00178624 2.64364 -0.116028 2.23973 0.126777L0.970159 0.889408C0.571253 1.12392 0.278592 1.50373 0.153542 1.94924C-0.303626 3.61499 0.0402969 6.48982 4.27518 10.7252C7.64393 14.0937 10.1518 14.9996 11.8756 14.9996C12.2723 15.0013 12.6674 14.9496 13.0504 14.8461C13.496 14.7212 13.8759 14.4285 14.1102 14.0295L14.8736 12.7607C15.1168 12.3567 14.999 11.8329 14.6064 11.5718ZM14.4429 12.5042L13.6813 13.7738C13.513 14.0618 13.2398 14.2735 12.9189 14.3647C11.3811 14.7869 8.69451 14.4372 4.62885 10.3715C0.563198 6.30586 0.213533 3.6195 0.635726 2.0815C0.727002 1.76022 0.939021 1.48665 1.22738 1.3181L2.49694 0.55647C2.6722 0.451016 2.89939 0.502132 3.01261 0.672439L4.11246 2.32369L5.03558 3.70823C5.14613 3.8754 5.10981 4.09946 4.9521 4.22316L3.81552 5.10727C3.46963 5.37175 3.37086 5.8503 3.58381 6.23011L3.67406 6.39409C3.99353 6.98 4.39071 7.70888 5.84074 9.15869C7.29078 10.6085 8.01944 11.0057 8.60508 11.3251L8.76929 11.4156C9.14907 11.6285 9.62765 11.5298 9.89214 11.1839L10.7762 10.0473C10.9 9.88968 11.1239 9.85339 11.2912 9.96382L14.327 11.9885C14.4974 12.1017 14.5485 12.329 14.4429 12.5042Z" fill="#999999"/>
<path d="M8.49995 2.50131C10.8457 2.50392 12.7467 4.40491 12.7493 6.75069C12.7493 6.88874 12.8612 7.00064 12.9993 7.00064C13.1373 7.00064 13.2492 6.88874 13.2492 6.75069C13.2463 4.12892 11.1217 2.00427 8.49995 2.0014C8.3619 2.0014 8.25 2.1133 8.25 2.25136C8.25 2.38941 8.3619 2.50131 8.49995 2.50131Z" fill="#999999"/>
<path d="M8.49995 4.00119C10.0178 4.00297 11.2478 5.23297 11.2496 6.75079C11.2496 6.88885 11.3615 7.00074 11.4995 7.00074C11.6376 7.00074 11.7495 6.88885 11.7495 6.75079C11.7474 4.95697 10.2937 3.50333 8.49995 3.50128C8.3619 3.50128 8.25 3.61318 8.25 3.75124C8.25 3.88929 8.3619 4.00119 8.49995 4.00119Z" fill="#999999"/>
<path d="M8.49995 5.501C9.18985 5.50182 9.74893 6.0609 9.74978 6.75083C9.74978 6.88888 9.8617 7.00078 9.99973 7.00078C10.1378 7.00078 10.2497 6.88888 10.2497 6.75083C10.2486 5.78494 9.46585 5.00218 8.49995 5.0011C8.3619 5.0011 8.25 5.113 8.25 5.25105C8.25 5.38911 8.3619 5.501 8.49995 5.501Z" fill="#999999"/>
</g>
<defs>
<clipPath id="clip0">
<rect width="15" height="15" fill="white"/>
</clipPath>
</defs>
</svg>
