<svg width="30" height="30" viewBox="0 0 30 30" fill="none" xmlns="http://www.w3.org/2000/svg">
<path d="M11.8364 21.0235C11.7231 21.0235 11.609 20.9845 11.5158 20.9052L8.31084 18.1762C8.20029 18.082 8.13672 17.9443 8.13672 17.799C8.13672 17.6539 8.20056 17.5162 8.31084 17.422L11.5158 14.693C11.7239 14.5155 12.0365 14.5407 12.214 14.7488C12.3911 14.9572 12.3663 15.2698 12.1579 15.4469L9.39594 17.799L12.1579 20.151C12.3663 20.3284 12.3911 20.641 12.214 20.8491C12.1159 20.9644 11.9766 21.0235 11.8364 21.0235Z" fill="#4985FF"/>
<path d="M18.1635 21.0235C18.0234 21.0235 17.8841 20.9644 17.7862 20.8491C17.6088 20.641 17.6339 20.3284 17.8421 20.151L20.604 17.799L17.8421 15.4469C17.6339 15.2698 17.6088 14.9572 17.7862 14.7488C17.9634 14.5407 18.2763 14.5155 18.4841 14.693L21.6891 17.422C21.7996 17.5162 21.8632 17.6539 21.8632 17.799C21.8632 17.9443 21.7996 18.082 21.6891 18.1762L18.4841 20.9052C18.391 20.9845 18.2768 21.0235 18.1635 21.0235V21.0235Z" fill="#4985FF"/>
<path d="M13.8652 23.0703C13.8312 23.0703 13.7969 23.0667 13.7624 23.0595C13.4949 23.0032 13.3235 22.7403 13.3799 22.4728L15.3773 12.9892C15.4337 12.7217 15.6963 12.5503 15.9641 12.6067C16.2317 12.6631 16.403 12.9256 16.3466 13.1934L14.3492 22.677C14.3 22.9103 14.0943 23.0703 13.8652 23.0703V23.0703Z" fill="#4985FF"/>
<path d="M26.6745 28.2371H3.32547C1.49193 28.2371 0 26.7455 0 24.9117V5.09427C0 3.26073 1.49193 1.7688 3.32547 1.7688H26.6745C28.5081 1.7688 30 3.26073 30 5.09427V24.9117C30 26.7455 28.5081 28.2371 26.6745 28.2371ZM3.32547 2.75936C2.03807 2.75936 0.990566 3.80687 0.990566 5.09427V24.9117C0.990566 26.1991 2.03807 27.2466 3.32547 27.2466H26.6745C27.9619 27.2466 29.0094 26.1991 29.0094 24.9117V5.09427C29.0094 3.80687 27.9619 2.75936 26.6745 2.75936H3.32547Z" fill="#4985FF"/>
<path d="M29.5047 9.69979H0.495283C0.221661 9.69979 0 9.47813 0 9.20451C0 8.93117 0.221661 8.70923 0.495283 8.70923H29.5047C29.7783 8.70923 30 8.93117 30 9.20451C30 9.47813 29.7783 9.69979 29.5047 9.69979Z" fill="#4985FF"/>
<path d="M8.46191 7.32983C7.59793 7.32983 6.89453 6.62643 6.89453 5.76245C6.89453 4.89819 7.59793 4.19507 8.46191 4.19507C9.32617 4.19507 10.0293 4.89819 10.0293 5.76245C10.0293 6.62643 9.32617 7.32983 8.46191 7.32983ZM8.46191 5.18563C8.14407 5.18563 7.8851 5.44433 7.8851 5.76245C7.8851 6.08057 8.14407 6.33927 8.46191 6.33927C8.78003 6.33927 9.03873 6.08057 9.03873 5.76245C9.03873 5.44433 8.78003 5.18563 8.46191 5.18563Z" fill="#4985FF"/>
<path d="M3.64746 7.31445C2.7832 7.31445 2.08008 6.61133 2.08008 5.74707C2.08008 4.88281 2.7832 4.17969 3.64746 4.17969C4.51171 4.17969 5.21484 4.88281 5.21484 5.74707C5.21484 6.61133 4.51171 7.31445 3.64746 7.31445ZM3.64746 5.17025C3.32962 5.17025 3.07064 5.42923 3.07064 5.74707C3.07064 6.06519 3.32962 6.32389 3.64746 6.32389C3.96558 6.32389 4.22427 6.06519 4.22427 5.74707C4.22427 5.42923 3.96558 5.17025 3.64746 5.17025Z" fill="#4985FF"/>
<path d="M13.278 7.34469C12.4141 7.34469 11.7109 6.64157 11.7109 5.77731C11.7109 4.91333 12.4141 4.21021 13.278 4.21021C14.1423 4.21021 14.8454 4.91333 14.8454 5.77731C14.8454 6.64157 14.1423 7.34469 13.278 7.34469ZM13.278 5.20049C12.9602 5.20049 12.7015 5.45919 12.7015 5.77731C12.7015 6.09543 12.9602 6.35413 13.278 6.35413C13.5962 6.35413 13.8549 6.09543 13.8549 5.77731C13.8549 5.45919 13.5962 5.20049 13.278 5.20049Z" fill="#4985FF"/>
</svg>
